# xmcd
#
# Track frame offsets:
#	150
#	15804
#	33020
#	47192
#	65552
#	79894
#	94016
#	109926
#	125455
#	142965
#	158683
#	182088
#
# Disc length: 2669 seconds
#
# Revision: 1
# Processed by: cddbd v1.5.2PL0 Copyright (c) Steve Scherf et al.
# Submitted via: audiograbber 1.83.01
#
DISCID=900a6b0c
DTITLE=TOQUE DE ARTE - PELOS QUATRO CANTOS
DYEAR=2012
DGENRE=SAMBA
TTITLE0=FOI UM RIO PASSOU EM MINHA VIDA
TTITLE1=POR QUE NÃO TENTAR SER FELIZ
TTITLE2=RIO ANTIGO
TTITLE3=RETALHOS DE CETIM
TTITLE4=FATO CONSUMADO
TTITLE5=MINHA HISTÓRIA(GESUBAMBINO)
TTITLE6=UM CANTO DE FÉ
TTITLE7=VALEU CARTOLA
TTITLE8=ESCRAVO DE MIM
TTITLE9=LA BELE DE JOUR
TTITLE10=BATENDO A PORTA(INST.)
TTITLE11=AQUARELA BRASILEIRA
EXTD=
EXTT0=
EXTT1=
EXTT2=
EXTT3=
EXTT4=
EXTT5=
EXTT6=
EXTT7=
EXTT8=
EXTT9=
EXTT10=
EXTT11=
PLAYORDER=
